<?xml version="1.0" encoding="utf-8"?>
<!-- Generator: Adobe Illustrator 21.1.0, SVG Export Plug-In . SVG Version: 6.00 Build 0)  -->
<svg version="1.1" id="Layer_1" xmlns="http://www.w3.org/2000/svg" xmlns:xlink="http://www.w3.org/1999/xlink" x="0px" y="0px"
	 viewBox="0 0 142 63.3" style="enable-background:new 0 0 142 63.3;" xml:space="preserve">
<style type="text/css">
	.st0{fill:url(#SVGID_1_);}
	.st1{fill:url(#SVGID_2_);}
	.st2{fill:url(#SVGID_3_);}
	.st3{fill:url(#SVGID_4_);}
	.st4{fill:url(#SVGID_5_);}
	.st5{fill:url(#SVGID_6_);}
	.st6{fill:url(#SVGID_7_);}
	.st7{fill:url(#SVGID_8_);}
	.st8{fill:url(#SVGID_9_);}
	.st9{fill:#939598;}
</style>
<g>
	<g>
		<g>
			<path d="M72.4,17.7c0,0-1.8-0.4-3.8-0.4c-0.1,0-0.1,0-0.2,0c-0.1,0-0.2,0-0.2,0c-2,0-3.8,0.4-3.8,0.4l-0.1,0l-0.7-3.3
				c0-0.2,0-0.3,0.1-0.4c0.1-0.1,0.2-0.2,0.3-0.2c0,0,0.1,0,0.1,0c0.3,0,0.4,0.3,0.4,0.4l0.3,1.4c0.1,0.4,0.2,0.5,0.5,0.5
				c0.1,0,0.2,0,0.2,0c0,0,0.3-0.1,0.5-0.3c0.4-0.7-0.1-1.5-0.1-1.5l0,0c0-0.1-0.1-0.2-0.2-0.3c-0.2-0.3-0.2-0.4-0.3-0.4
				c-0.1-0.2,0-0.4,0-0.4l0.4-1c0.1-0.2,0.2-0.2,0.2-0.2c0.1,0,0.2,0.1,0.2,0.2l0.6,1c0,0,0.1,0.2,0,0.4l-0.3,0.8
				c-0.3,0.9,0.3,1.4,0.3,1.4C67,16,67.2,16,67.3,16c0.1,0,0.1,0,0.1,0c0.2,0,0.3-0.3,0.3-0.4l0,0c0.4-1,0-1.8,0-1.9l-0.6-1.2
				c-0.2-0.3,0-0.6,0-0.6l0.9-1.6c0-0.1,0.1-0.2,0.3-0.2s0.3,0.1,0.3,0.2l0.9,1.6c0,0,0.2,0.3,0,0.6L69,13.7c0,0-0.4,0.8,0,1.9l0,0
				c0,0.1,0.2,0.3,0.3,0.4c0,0,0.1,0,0.1,0c0.1,0,0.3,0,0.5-0.2c0,0,0.5-0.5,0.3-1.4l-0.3-0.8c-0.1-0.2,0-0.4,0-0.4l0.6-1
				c0,0,0.1-0.2,0.2-0.2c0.1,0,0.2,0,0.2,0.2l0.4,1c0,0,0.1,0.2,0,0.4c-0.1,0.1-0.4,0.7-0.5,0.8l0,0c0,0-0.5,0.8-0.1,1.5
				c0.1,0.3,0.5,0.3,0.5,0.3c0,0,0.1,0,0.2,0c0.3,0,0.5-0.2,0.5-0.5l0.3-1.4c0-0.1,0.1-0.4,0.4-0.4c0,0,0.1,0,0.1,0
				c0,0,0.2,0,0.3,0.2c0,0.1,0.1,0.2,0.1,0.4l-0.7,3.3L72.4,17.7z"/>
			<linearGradient id="SVGID_1_" gradientUnits="userSpaceOnUse" x1="30.2518" y1="17.7311" x2="68.3451" y2="17.7311">
				<stop  offset="0" style="stop-color:#000000"/>
				<stop  offset="1" style="stop-color:#808080"/>
			</linearGradient>
			<polygon class="st0" points="36.9,1.9 30.3,0 64,35.5 68.3,34 			"/>
			<linearGradient id="SVGID_2_" gradientUnits="userSpaceOnUse" x1="30.2518" y1="0.9523" x2="41.4396" y2="0.9523">
				<stop  offset="0" style="stop-color:#000000"/>
				<stop  offset="1" style="stop-color:#808080"/>
			</linearGradient>
			<polygon class="st1" points="41.4,0 30.3,0 36.9,1.9 			"/>
			<linearGradient id="SVGID_3_" gradientUnits="userSpaceOnUse" x1="36.8638" y1="17.0219" x2="68.3451" y2="17.0219">
				<stop  offset="0" style="stop-color:#808080"/>
				<stop  offset="1.870650e-02" style="stop-color:#7A7A7A"/>
				<stop  offset="0.1563" style="stop-color:#555555"/>
				<stop  offset="0.3004" style="stop-color:#363636"/>
				<stop  offset="0.4506" style="stop-color:#1E1E1E"/>
				<stop  offset="0.6097" style="stop-color:#0D0D0D"/>
				<stop  offset="0.7836" style="stop-color:#030303"/>
				<stop  offset="1" style="stop-color:#000000"/>
			</linearGradient>
			<polygon class="st2" points="41.4,0 36.9,1.9 65.5,31.1 68.3,34 68.3,28.2 			"/>
			
				<linearGradient id="SVGID_4_" gradientUnits="userSpaceOnUse" x1="503.678" y1="17.7311" x2="541.7714" y2="17.7311" gradientTransform="matrix(-1 0 0 1 610.1165 0)">
				<stop  offset="0" style="stop-color:#808080"/>
				<stop  offset="1" style="stop-color:#000000"/>
			</linearGradient>
			<polygon class="st3" points="99.8,1.9 106.4,0 72.6,35.5 68.3,34 			"/>
			
				<linearGradient id="SVGID_5_" gradientUnits="userSpaceOnUse" x1="503.678" y1="0.9523" x2="514.8658" y2="0.9523" gradientTransform="matrix(-1 0 0 1 610.1165 0)">
				<stop  offset="0" style="stop-color:#808080"/>
				<stop  offset="1" style="stop-color:#000000"/>
			</linearGradient>
			<polygon class="st4" points="95.3,0 106.4,0 99.8,1.9 			"/>
			
				<linearGradient id="SVGID_6_" gradientUnits="userSpaceOnUse" x1="339.4908" y1="334.5622" x2="348.0477" y2="334.5622" gradientTransform="matrix(1 0 0 -1 -275.4599 369.3152)">
				<stop  offset="0" style="stop-color:#808080"/>
				<stop  offset="0.2262" style="stop-color:#545454"/>
				<stop  offset="0.4522" style="stop-color:#2F2F2F"/>
				<stop  offset="0.6627" style="stop-color:#151515"/>
				<stop  offset="0.8515" style="stop-color:#060606"/>
				<stop  offset="1" style="stop-color:#000000"/>
			</linearGradient>
			<polygon class="st5" points="72.6,35.5 64,35.5 68.3,34 			"/>
			
				<linearGradient id="SVGID_7_" gradientUnits="userSpaceOnUse" x1="510.29" y1="17.0219" x2="541.7714" y2="17.0219" gradientTransform="matrix(-1 0 0 1 610.1165 0)">
				<stop  offset="0" style="stop-color:#000000"/>
				<stop  offset="0.2164" style="stop-color:#030303"/>
				<stop  offset="0.3903" style="stop-color:#0D0D0D"/>
				<stop  offset="0.5494" style="stop-color:#1E1E1E"/>
				<stop  offset="0.6996" style="stop-color:#363636"/>
				<stop  offset="0.8437" style="stop-color:#555555"/>
				<stop  offset="0.9813" style="stop-color:#7A7A7A"/>
				<stop  offset="1" style="stop-color:#808080"/>
			</linearGradient>
			<polygon class="st6" points="95.3,0 99.8,1.9 71.2,31.1 68.3,34 68.3,28.2 			"/>
			<linearGradient id="SVGID_8_" gradientUnits="userSpaceOnUse" x1="32.7039" y1="18.3065" x2="106.4387" y2="18.3065">
				<stop  offset="0" style="stop-color:#808080"/>
				<stop  offset="7.361412e-03" style="stop-color:#7C7C7C"/>
				<stop  offset="7.706398e-02" style="stop-color:#5B5B5B"/>
				<stop  offset="0.1541" style="stop-color:#3E3E3E"/>
				<stop  offset="0.2407" style="stop-color:#272727"/>
				<stop  offset="0.34" style="stop-color:#161616"/>
				<stop  offset="0.4598" style="stop-color:#090909"/>
				<stop  offset="0.6209" style="stop-color:#020202"/>
				<stop  offset="1" style="stop-color:#000000"/>
			</linearGradient>
			<path class="st7" d="M106.4,17.8c0-16-21.5-15.3-21.5-15.3H32.7L34.1,4h35.4h15.4c8,0,15.9,6.5,15.9,13.8
				c0,14.6-15.9,14.7-15.9,14.7H33.7l1.2,1.5h33.1h17C106.8,34,106.4,17.8,106.4,17.8z"/>
			<linearGradient id="SVGID_9_" gradientUnits="userSpaceOnUse" x1="32.6353" y1="18.288" x2="100.8374" y2="18.288">
				<stop  offset="0" style="stop-color:#000000"/>
				<stop  offset="0.4283" style="stop-color:#020202"/>
				<stop  offset="0.5826" style="stop-color:#090909"/>
				<stop  offset="0.6926" style="stop-color:#141414"/>
				<stop  offset="0.7815" style="stop-color:#252525"/>
				<stop  offset="0.8576" style="stop-color:#3B3B3B"/>
				<stop  offset="0.925" style="stop-color:#575757"/>
				<stop  offset="0.9845" style="stop-color:#767676"/>
				<stop  offset="1" style="stop-color:#808080"/>
			</linearGradient>
			<path class="st8" d="M100.8,17.7c0-0.2,0-0.4,0-0.6c-0.6-6.9-8.2-13-15.9-13H69.5h-35l0,0h-0.4l1.3,1.3h31.4H81
				c7.3,0,14.7,5.9,14.7,12.5C95.7,31.2,81,31.2,81,31.2H32.6l1,1.3h51.3c0,0,15.9-0.1,15.9-14.7C100.8,17.8,100.8,17.7,100.8,17.7z
				"/>
		</g>
		<path d="M17.5,54.2h2.2v9.1h-2.2V54.2z"/>
		<path d="M17.5,51.2h2.2v2h-2.2V51.2z"/>
		<path class="st9" d="M116.9,54.2h2.2v9.1h-2.2V54.2z"/>
		<path class="st9" d="M116.9,51.2h2.2v2h-2.2V51.2z"/>
		<path d="M34.9,53.2h-8.7v-2h13.3l-8.7,10h8.8v2H26.1L34.9,53.2z"/>
		<path d="M54.2,61.3h-6.2l-1.1,2h-2.5l6.7-12.1l6.7,12.1h-2.5L54.2,61.3z M49.2,59.3h3.9l-2-3.5L49.2,59.3z"/>
		<path d="M71,51.2h2.8l-5.5,6.3v5.7h-2.2v-5.6l-5.6-6.4h2.9l3.8,4.4L71,51.2z"/>
		<path d="M79.7,51.2l8.9,7.2v-7.2h2.2v12.1v0v0l-8.9-7.2v7.2h-2.2V51.2z"/>
		<path class="st9" d="M99.7,51.2l4.2,7.6l4.2-7.6h2.5l-6.7,12.1l-6.7-12.1H99.7z"/>
		<path d="M10.6,54.9c-0.4-0.7-0.8-1.4-1.4-1.9c-0.6-0.5-1.3-1-2.1-1.3c-0.8-0.3-1.7-0.5-2.6-0.5H0v2h2.2h1h1.2
			c0.6,0,1.2,0.1,1.7,0.3c0.5,0.2,1,0.5,1.4,0.9c0.4,0.4,0.7,0.8,1,1.3c0.2,0.5,0.3,1,0.3,1.5s-0.1,1.1-0.3,1.5
			c-0.2,0.5-0.5,0.9-1,1.3c-0.4,0.4-0.9,0.7-1.4,0.9c-0.5,0.2-1.1,0.3-1.7,0.3H3.3h-1H0v2h4.5c0.9,0,1.8-0.2,2.6-0.5
			c0.8-0.3,1.5-0.8,2.1-1.3c0.6-0.6,1.1-1.2,1.4-1.9c0.4-0.7,0.5-1.5,0.5-2.3S11,55.7,10.6,54.9z"/>
		<path class="st9" d="M135.4,52.4c-0.9-0.8-1.9-1.2-3.1-1.2h-6.7v2h2.2h1.2h3.3c0.6,0,1.1,0.2,1.6,0.6c0.4,0.4,0.7,0.9,0.7,1.4
			c0,0.5-0.2,1-0.7,1.4c-0.4,0.4-1,0.6-1.6,0.6H129h-1.2h-2.2v6h2.2v-4h4.5c1.2,0,2.3-0.4,3.1-1.2c0.9-0.8,1.3-1.7,1.3-2.8
			C136.7,54.2,136.3,53.2,135.4,52.4z"/>
	</g>
	<g>
		<path class="st9" d="M140.1,51.2c-1,0-1.9,0.8-1.9,1.9c0,1,0.9,1.9,1.9,1.9c1.1,0,1.9-0.9,1.9-1.9C142,52.1,141.2,51.2,140.1,51.2
			z M140.1,54.7c-0.9,0-1.6-0.7-1.6-1.6c0-0.9,0.7-1.6,1.6-1.6c0.9,0,1.6,0.7,1.6,1.6C141.7,54,141,54.7,140.1,54.7z"/>
		<path class="st9" d="M139.7,54.1v-0.8h0.4l0.5,0.8h0.4l-0.5-0.8c0.1,0,0.5-0.2,0.5-0.6c0-0.4-0.3-0.6-0.7-0.6h-0.9v2.1H139.7z
			 M139.7,52.3h0.6c0.2,0,0.4,0.1,0.4,0.4c0,0.2-0.2,0.4-0.4,0.4h-0.6V52.3z"/>
	</g>
</g>
</svg>
